<?xml version="1.0" encoding="UTF-8" standalone="no"?>
<svg
   xmlns:dc="http://purl.org/dc/elements/1.1/"
   xmlns:cc="http://creativecommons.org/ns#"
   xmlns:rdf="http://www.w3.org/1999/02/22-rdf-syntax-ns#"
   xmlns:svg="http://www.w3.org/2000/svg"
   xmlns="http://www.w3.org/2000/svg"
   id="svg8"
   version="1.1"
   viewBox="0 0 210 297"
   height="297mm"
   width="210mm">
  <defs
     id="defs2" />
  <metadata
     id="metadata5">
    <rdf:RDF>
      <cc:Work
         rdf:about="">
        <dc:format>image/svg+xml</dc:format>
        <dc:type
           rdf:resource="http://purl.org/dc/dcmitype/StillImage" />
        <dc:title></dc:title>
      </cc:Work>
    </rdf:RDF>
  </metadata>
  <g
     id="layer1">
    <path
       d="m 173.12296,21.177906 a 27.014958,17.910144 0 0 0 -27.01488,17.910228 27.014958,17.910144 0 0 0 1.61488,6.099107 v 87.091639 c 0,0.40719 0.31309,0.7352 0.70177,0.7352 h 49.39647 c 0.38867,0 0.70176,-0.32801 0.70176,-0.7352 V 45.187241 a 27.014958,17.910144 0 0 0 1.61489,-6.099107 27.014958,17.910144 0 0 0 -27.01489,-17.910228 z"
       style="opacity:0.91;fill:#000000;stroke-width:0.177;stroke-miterlimit:4;stroke-dasharray:none"
       id="path53-8" />
    <text
       id="text97"
       y="23.783575"
       x="31.330286"
       style="font-style:normal;font-weight:normal;font-size:10.5833px;line-height:1.25;font-family:'Courier New';fill:#000000;fill-opacity:1;stroke:none;stroke-width:0.264583;-inkscape-font-specification:'Courier New, Normal';font-stretch:normal;font-variant:normal;font-variant-ligatures:normal;font-variant-caps:normal;font-variant-numeric:normal;font-variant-east-asian:normal;"
       xml:space="preserve"><tspan
         id="tspan99"></tspan></text>
    <text
       id="text103"
       y="70.764252"
       x="154.63107"
       style="font-style:normal;font-variant:normal;font-weight:normal;font-stretch:normal;font-size:6.35px;line-height:1.25;font-family:'Javanese Text';-inkscape-font-specification:'Javanese Text, Normal';font-variant-ligatures:normal;font-variant-caps:normal;font-variant-numeric:normal;font-variant-east-asian:normal;fill:#ffffff;stroke-width:0.264583"
       xml:space="preserve"><tspan
         style="font-style:normal;font-variant:normal;font-weight:normal;font-stretch:normal;font-size:6.35px;font-family:'Javanese Text';-inkscape-font-specification:'Javanese Text, Normal';font-variant-ligatures:normal;font-variant-caps:normal;font-variant-numeric:normal;font-variant-east-asian:normal;fill:#ffffff;stroke-width:0.264583"
         y="70.764252"
         x="154.63107"
         id="tspan101">HAND SOAP</tspan></text>
    <rect
       ry="0.08064156"
       y="74.630142"
       x="154.91362"
       height="1.2221038"
       width="36.418694"
       id="rect107"
       style="opacity:0.91;fill:#ffffff;stroke-width:0.264583" />
    <rect
       style="opacity:0.91;fill:#ffffff;stroke-width:0.264583"
       id="rect107-9"
       width="36.418694"
       height="1.2221038"
       x="154.91362"
       y="61.171108"
       ry="0.08064156" />
    <path
       d="m 173.12296,24.134696 a 22.725461,16.743283 0 0 0 -22.72552,16.743363 22.725461,16.743283 0 0 0 1.35847,5.701745 v 81.417666 c 0,0.38068 0.26336,0.68729 0.59035,0.68729 h 41.5533 c 0.32695,0 0.59033,-0.30661 0.59033,-0.68729 V 46.579804 a 22.725461,16.743283 0 0 0 1.35846,-5.701745 22.725461,16.743283 0 0 0 -22.72539,-16.743363 z"
       style="opacity:1;fill:none;stroke:#ffffff;stroke-width:2.245;stroke-miterlimit:4;stroke-dasharray:none;stroke-opacity:1;stroke-linejoin:round"
       id="path53-8-3-1" />
    <path
       id="path1055"
       d="m 169.29451,42.147489 c 1.85532,1.305416 3.72963,1.585534 5.95403,1.585534 0.0214,1.02106 0.13761,2.051883 0.68824,2.944379 0.43805,0.710025 1.08537,1.324736 1.83076,1.712082 6.5673,3.412702 10.39574,-7.861548 2.97702,-8.507042 0.26067,-1.914644 0.72307,-3.540699 -0.0272,-5.436113 -1.51375,-3.8241 -6.46013,-5.318949 -10.04885,-3.538438 -1.17255,0.581749 -2.23283,1.506533 -2.89379,2.632419 -0.42732,0.727896 -0.55116,2.009188 -1.29766,2.485255 -1.84472,1.176466 -3.76895,-0.05984 -5.09388,2.497849 -2.5567,4.935605 5.39861,8.374763 7.91132,3.624075 m 3.20602,-11.024279 c 2.54196,-0.441672 5.17907,0.28413 6.72391,2.417282 2.47591,3.418794 0.40292,8.401694 -3.7469,9.215389 -7.82817,1.534909 -11.03657,-10.232282 -2.97701,-11.632671 m -3.43502,5.588167 3.20602,-2.9201 3.20601,-1.609995 c -3.42134,0 -5.7068,0.945408 -6.41203,4.530095 m -4.35102,0.301296 c 2.88892,-0.501074 5.38379,5.896348 1.37401,6.643112 -4.48005,0.834307 -5.99628,-5.841376 -1.37401,-6.643112 m -1.83201,4.455302 h 0.229 c 0.25115,-1.649973 1.21128,-2.637896 2.51902,-3.624075 -2.2087,-0.643885 -3.14932,1.937363 -2.74802,3.624075 m 17.40409,-0.760262 c 3.94225,-1.246071 5.29519,5.997459 1.145,7.184366 -2.37497,0.67922 -5.97042,-1.001626 -5.19333,-3.908791 0.24688,-0.923664 3.15238,-2.992377 4.04833,-3.275575 m 0.687,0.760262 c 1.07786,1.634073 1.60164,2.78585 1.603,4.756599 h 0.22901 c 0.747,-2.027081 0.50861,-4.063132 -1.83201,-4.756599 m -13.74007,4.203452 c -5.13304,1.329991 -2.65248,8.713433 2.29001,7.278979 4.89366,-1.420162 2.49252,-8.518163 -2.29001,-7.278979 m 1.14501,0.720919 c 4.07418,0.05857 3.86863,6.065752 -0.22901,5.917436 -3.97655,-0.143898 -3.71602,-5.97413 0.22901,-5.917436 m -2.29002,3.682809 h 0.22901 c 0.26049,-1.33067 1.03907,-2.189758 2.29001,-2.718057 -1.79255,-0.721191 -2.95023,1.15044 -2.51902,2.718057 m 9.38905,-0.531652 c -4.10418,1.273319 -1.91623,7.274018 2.06101,6.046362 4.15056,-1.280884 2.0475,-7.321018 -2.06101,-6.046362 m 0.916,0.627599 c 3.04215,-0.285804 3.60164,4.330861 0.45801,4.635057 -3.27804,0.317333 -3.66168,-4.334077 -0.45801,-4.635057 m -1.832,2.622109 2.51901,-1.812038 c -1.36097,-0.518673 -2.20478,0.624791 -2.51901,1.812038 z"
       style="fill:#ffffff;stroke:none;stroke-width:0.227749" />
    <path
       d="m 186.70968,102.88922 c -0.62295,0.004 -1.27616,0.20501 -1.90583,0.66611 -3.50471,2.5661 0.45575,7.58802 3.92276,5.04155 2.81395,-2.06683 0.6825,-5.72686 -2.01693,-5.70766 z m 0.063,0.91622 c 2.32631,-0.0824 3.44667,3.33304 0.88315,4.4974 -2.78202,1.2636 -4.81859,-2.91714 -1.94666,-4.23127 0.37434,-0.1713 0.73118,-0.25436 1.06351,-0.26613 z m 1.75803,1.4211 -1.78904,2.53525 c 1.45573,0.0458 1.87975,-1.31048 1.78904,-2.53525 z"
       style="fill:#ffffff;stroke:none;stroke-width:0.227749"
       id="path1055-9" />
    <path
       style="fill:#ffffff;stroke:none;stroke-width:0.227749"
       d="m 169.86155,97.240817 c -1.27427,1.87685 -1.52307,3.755583 -1.48594,5.979673 -1.02056,0.0384 -2.0493,0.17184 -2.93249,0.73728 -0.70261,0.44984 -1.30643,1.10733 -1.68128,1.85908 -3.30262,6.62335 8.03396,10.26309 8.55554,2.83463 1.91874,0.22867 3.55228,0.66387 5.43491,-0.11793 3.7983,-1.57736 5.21039,-6.548 3.37022,-10.106513 -0.60123,-1.16268 -1.54358,-2.20737 -2.68034,-2.84945 -0.73493,-0.41511 -2.01811,-0.51755 -2.50657,-1.256 -1.2071,-1.82483 -0.003,-3.769425 -2.58252,-5.051483 -4.97758,-2.473969 -8.28348,5.537633 -3.49152,7.970703 m 11.07625,3.021583 c 0.48403,2.53424 -0.19765,5.18309 -2.30473,6.76332 -3.37699,2.53263 -8.39379,0.54309 -9.27664,-3.59257 -1.66534,-7.801473 10.04666,-11.205823 11.58137,-3.17075 m -5.64472,-3.341283 2.9732,3.156843 1.66327,3.1787 c -0.0571,-3.420873 -1.04051,-5.690233 -4.63647,-6.335543 m -0.37388,-4.34538 c 0.54923,2.88015 -5.80567,5.48145 -6.61925,1.48469 -0.90896,-4.4655 5.74048,-6.092937 6.61925,-1.48469 m -4.48525,-1.7574 0.004,0.22897 c 1.65393,0.22358 2.65774,1.16709 3.66561,2.45818 0.60693,-2.21913 -1.98965,-3.116543 -3.66943,-2.68715 m 1.05062,17.388983 c 1.3117,3.92091 -5.90825,5.39455 -7.16425,1.26475 -0.71876,-2.3633 0.90184,-5.9863 3.82157,-5.25784 0.92765,0.23143 3.04456,3.102 3.34268,3.99309 m -0.74869,0.6996 c -1.61585,1.10498 -2.75873,1.64791 -4.72918,1.68216 l 0.004,0.22898 c 2.03927,0.71306 4.07105,0.44073 4.72536,-1.91114 m -4.43218,-13.668013 c -1.41548,-5.110125 -8.75649,-2.50668 -7.23975,2.41118 1.50164,4.869283 8.55857,2.350013 7.23975,-2.41118 m -0.70171,1.15689 c 0.009,4.074593 -6.00034,3.969323 -5.92044,-0.13022 0.0775,-3.9784 5.91128,-3.81521 5.92044,0.13022 m -3.72052,-2.22824 0.004,0.22898 c 1.33483,0.23824 2.2068,1.00238 2.7559,2.24433 0.69117,-1.80434 -1.19952,-2.93062 -2.75972,-2.47331 m 0.68828,9.378873 c -1.34164,-4.082363 -7.30499,-1.79456 -6.01112,2.16164 1.34997,4.1286 7.35417,1.92503 6.01112,-2.16164 m -0.61223,0.92635 c 0.33655,3.03696 -4.27014,3.67342 -4.62676,0.53531 -0.372,-3.27229 4.27236,-3.73351 4.62676,-0.53531 m -2.65232,-1.78798 1.85383,2.48842 c 0.4959,-1.36944 -0.6615,-2.19405 -1.85383,-2.48842 z"
       id="path1055-98" />
    <path
       id="path1055-9-5"
       style="fill:#ffffff;stroke:none;stroke-width:0.227749"
       d="m 177.4346,115.32315 c -0.62295,0.004 -1.27616,0.20501 -1.90583,0.66611 -3.50471,2.5661 0.45575,7.58802 3.92276,5.04155 2.81395,-2.06683 0.6825,-5.72686 -2.01693,-5.70766 z m 0.063,0.91622 c 2.32631,-0.0824 3.44667,3.33304 0.88315,4.4974 -2.78202,1.2636 -4.81859,-2.91714 -1.94666,-4.23127 0.37434,-0.1713 0.73118,-0.25436 1.06351,-0.26613 z m 1.75803,1.4211 -1.78904,2.53525 c 1.45573,0.0458 1.87975,-1.31048 1.78904,-2.53525 z" />
  </g>
</svg>
